<svg width="56" height="56" viewBox="0 0 56 56" fill="none" xmlns="http://www.w3.org/2000/svg">
<path d="M56 28C56 43.464 43.464 56 28 56C12.536 56 0 43.464 0 28C0 12.536 12.536 0 28 0C43.464 0 56 12.536 56 28Z" fill="white"/>
<path fill-rule="evenodd" clip-rule="evenodd" d="M28 52.64C41.6083 52.64 52.64 41.6083 52.64 28C52.64 14.3917 41.6083 3.36 28 3.36C14.3917 3.36 3.36 14.3917 3.36 28C3.36 41.6083 14.3917 52.64 28 52.64ZM28 56C43.464 56 56 43.464 56 28C56 12.536 43.464 0 28 0C12.536 0 0 12.536 0 28C0 43.464 12.536 56 28 56Z" fill="#006494"/>
<path d="M23.7236 19.5763V23.3395L28.1252 20.7187V39.1987H31.6868V15.6787H30.242L23.7236 19.5763Z" fill="#006494"/>
</svg>
