<svg width="56" height="56" viewBox="0 0 56 56" fill="none" xmlns="http://www.w3.org/2000/svg">
<path d="M56 28C56 43.464 43.464 56 28 56C12.536 56 0 43.464 0 28C0 12.536 12.536 0 28 0C43.464 0 56 12.536 56 28Z" fill="white"/>
<path fill-rule="evenodd" clip-rule="evenodd" d="M28 52.64C41.6083 52.64 52.64 41.6083 52.64 28C52.64 14.3917 41.6083 3.36 28 3.36C14.3917 3.36 3.36 14.3917 3.36 28C3.36 41.6083 14.3917 52.64 28 52.64ZM28 56C43.464 56 56 43.464 56 28C56 12.536 43.464 0 28 0C12.536 0 0 12.536 0 28C0 43.464 12.536 56 28 56Z" fill="#2292A4"/>
<path d="M35.2054 39.1999V35.9743H26.1334L32.8198 27.4735C34.1302 25.8271 34.7686 24.0127 34.7686 22.0975C34.7686 20.0479 34.1302 18.4015 32.8534 17.2255C31.6102 16.0159 29.9638 15.4111 27.9478 15.4111C26.0662 15.4111 24.487 16.0159 23.1766 17.1919C21.8998 18.3679 21.1942 19.8127 21.0934 21.5935L24.4534 22.2319C24.7222 20.0479 25.9654 18.6367 27.9478 18.6367C30.0646 18.6367 31.1734 20.0479 31.1734 22.2319C31.1734 23.7103 30.7702 24.7519 29.2918 26.5999L20.623 37.7215V39.1999H35.2054Z" fill="#2292A4"/>
</svg>
