<?xml version="1.0" encoding="UTF-8" standalone="no"?>
<svg
   xmlns:dc="http://purl.org/dc/elements/1.1/"
   xmlns:cc="http://creativecommons.org/ns#"
   xmlns:rdf="http://www.w3.org/1999/02/22-rdf-syntax-ns#"
   xmlns:svg="http://www.w3.org/2000/svg"
   xmlns="http://www.w3.org/2000/svg"
   xmlns:sodipodi="http://sodipodi.sourceforge.net/DTD/sodipodi-0.dtd"
   xmlns:inkscape="http://www.inkscape.org/namespaces/inkscape"
   version="1.1"
   id="svg2"
   xml:space="preserve"
   width="793.71997"
   height="704.35999"
   viewBox="0 0 793.71997 704.35999"
   sodipodi:docname="Universidade_do_Minho.eps"><metadata
     id="metadata8"><rdf:RDF><cc:Work
         rdf:about=""><dc:format>image/svg+xml</dc:format><dc:type
           rdf:resource="http://purl.org/dc/dcmitype/StillImage" /></cc:Work></rdf:RDF></metadata><defs
     id="defs6" /><sodipodi:namedview
     pagecolor="#ffffff"
     bordercolor="#666666"
     borderopacity="1"
     objecttolerance="10"
     gridtolerance="10"
     guidetolerance="10"
     inkscape:pageopacity="0"
     inkscape:pageshadow="2"
     inkscape:window-width="640"
     inkscape:window-height="480"
     id="namedview4" /><g
     id="g10"
     inkscape:groupmode="layer"
     inkscape:label="ink_ext_XXXXXX"
     transform="matrix(1.3333333,0,0,-1.3333333,0,704.36)"><g
       id="g12"
       transform="scale(0.1)"><path
         d="M 591.566,400.781 591.594,7.82031 494,7.83203 493.984,268.359 c 0,0.571 -0.199,3.262 -0.574,8.063 -0.203,3.828 -0.289,6.43 -0.289,7.777 l 0.859,26.77 c 0,2.301 0,7.863 0,16.703 -1.152,-5.57 -3.839,-17.281 -8.058,-35.121 L 482.465,277.582 417.992,7.83984 h -76.57 L 278.359,268.379 c -5.379,24.363 -9.316,44.133 -11.804,59.301 V 313.871 283.922 L 266.559,268.379 266.578,7.83984 168.98,7.85156 168.949,400.809 323.836,400.801 371.93,202.16 c 6.519,-27.828 10.453,-49.808 11.804,-65.93 1.719,13.622 4.977,32.911 9.782,57.86 l 1.441,8.07 40.574,198.629 156.035,-0.008"
         style="fill:#899096;fill-opacity:1;fill-rule:evenodd;stroke:none"
         id="path14" /><path
         d="M 746.457,285.051 746.477,7.82031 H 658.09 L 658.078,285.051 Z M 746.449,400.77 V 321.891 H 658.07 l -0.004,78.89 88.383,-0.011"
         style="fill:#899096;fill-opacity:1;fill-rule:evenodd;stroke:none"
         id="path16" /><path
         d="M 893.852,285.039 V 253.66 c 31.093,27.43 62.472,41.149 94.136,41.149 11.52,0 22.462,-3.067 32.822,-9.207 10.37,-6.141 18.04,-14.02 23.04,-23.61 7.67,-15.742 11.5,-41.07 11.51,-75.992 L 1055.38,7.80078 H 966.992 L 966.984,186 c -0.007,24.949 -9.796,37.422 -29.371,37.43 -13.82,0 -28.41,-7.2 -43.761,-21.59 L 893.867,7.80078 805.488,7.80859 805.473,285.039 h 88.379"
         style="fill:#899096;fill-opacity:1;fill-rule:evenodd;stroke:none"
         id="path18" /><path
         d="m 1202.75,400.742 v -148.25 c 7.68,9.207 17.66,17.27 29.95,24.18 21.68,12.09 41.64,18.117 59.87,18.117 13.25,0 25.15,-3.07 35.7,-9.207 10.74,-5.953 18.71,-14.012 23.9,-24.172 7.67,-15.371 11.51,-38.488 11.52,-69.39 L 1363.7,7.78125 h -88.38 L 1275.31,185.41 c 0,10.551 -1.44,18.32 -4.32,23.32 -5.57,9.79 -14.31,14.68 -26.19,14.68 -14.21,0 -28.22,-7.39 -42.04,-22.168 l 0.01,-193.45294 h -88.38 l -0.02,392.96094 88.38,-0.008"
         style="fill:#899096;fill-opacity:1;fill-rule:evenodd;stroke:none"
         id="path20" /><path
         d="m 1547.06,294.781 c 48.56,-0.011 84.54,-18.722 107.96,-56.14 15.17,-23.993 22.74,-53.649 22.75,-88.95 0,-47.421 -11.99,-84.3512 -35.98,-110.8316 -23.6,-25.9102 -56.81,-38.8672125 -99.6,-38.8594 -48.75,0 -84.26,16.7891 -106.53,50.3789 -17.08,25.7109 -25.62,57.7621 -25.62,96.1521 0,24.559 3.83,46.918 11.51,67.078 7.67,20.332 18.51,36.84 32.53,49.512 23.61,21.109 54.6,31.649 92.98,31.66 z m -4.31,-63.621 c -26.69,0 -40.02,-27.16 -40.01,-81.461 0,-27.84 2.59,-48.078 7.78,-60.7498 7.09,-16.8906 18.03,-25.3398 32.81,-25.3398 18.43,0 30.61,12.0898 36.56,36.2812 3.46,13.6094 5.18,32.5194 5.18,56.7114 0,49.699 -14.11,74.546 -42.32,74.558"
         style="fill:#899096;fill-opacity:1;fill-rule:evenodd;stroke:none"
         id="path22" /><path
         d="m 262.477,1054.52 0.019,-257.36 c 0.184,-17.281 0.762,-29.648 1.727,-37.14 1.914,-12.09 7.187,-21.59 15.836,-28.5 7.484,-5.758 16.886,-8.641 28.214,-8.641 16.883,0 29.739,6.332 38.567,18.992 6.523,9.02 9.785,27.449 9.785,55.289 l -0.008,257.36 97.586,-0.01 0.02,-257.362 c 0,-22.078 -1.348,-39.359 -4.028,-51.828 -2.691,-12.281 -7.484,-23.699 -14.39,-34.25 -25.145,-38.199 -68.219,-57.269 -129.258,-57.281 -49.715,0 -87.231,14.211 -112.567,42.621 -14.589,16.301 -23.32,35.309 -26.203,57 -1.922,15.149 -2.879,33.469 -2.879,54.981 l -0.015,246.139 97.594,-0.01"
         style="fill:#899096;fill-opacity:1;fill-rule:evenodd;stroke:none"
         id="path24" /><path
         d="m 605.934,938.77 0.007,-31.379 c 31.086,27.441 62.469,41.148 94.133,41.16 11.52,0 22.461,-3.071 32.821,-9.211 10.363,-6.149 18.039,-14.02 23.035,-23.61 7.668,-15.738 11.504,-41.07 11.515,-75.988 l 0.012,-178.211 -88.379,0.008 -0.012,178.203 c -0.003,24.949 -9.793,37.418 -29.363,37.418 -13.824,0 -28.418,-7.191 -43.762,-21.578 l 0.012,-194.043 -88.379,0.012 -0.015,277.23 88.375,-0.011"
         style="fill:#899096;fill-opacity:1;fill-rule:evenodd;stroke:none"
         id="path26" /><path
         d="m 914.84,938.75 0.008,-277.23 -88.371,0.011 -0.02,277.231 z m -0.012,115.73 v -78.878 h -88.379 v 78.878 h 88.379"
         style="fill:#899096;fill-opacity:1;fill-rule:evenodd;stroke:none"
         id="path28" /><path
         d="M 1209.06,938.73 1127.03,661.512 H 1028 l -89.27,277.238 97.02,-0.008 27.93,-110.551 c 8.07,-33.961 13.83,-66.402 17.29,-97.3 1.91,28.019 6.89,62.179 14.96,102.488 l 21.58,105.363 91.55,-0.012"
         style="fill:#899096;fill-opacity:1;fill-rule:evenodd;stroke:none"
         id="path30" /><path
         d="m 1392.99,749.301 82.05,-6.621 c -13.63,-59.309 -54.98,-88.961 -124.07,-88.961 -45.87,0.011 -80.14,14.121 -102.78,42.32 -20.15,24.961 -30.23,58.352 -30.23,100.191 -0.01,44.719 9.87,80.129 29.64,106.231 12.28,16.121 28.2,28.008 47.79,35.687 17.46,6.911 35.88,10.372 55.27,10.372 37.23,0 66.78,-11.528 88.67,-34.559 17.27,-18.039 28.21,-40.789 32.82,-68.231 0.96,-6.531 2.21,-27.828 3.75,-63.898 l -164.39,0.008 c 0.2,-15.75 1.54,-28.129 4.04,-37.141 2.5,-8.84 7.67,-15.828 15.54,-21.019 6.53,-4.231 13.82,-6.328 21.89,-6.328 21.3,-0.012 34.63,10.648 40.01,31.949 z m -81.48,80.609 81.47,-0.012 c -0.19,13.051 -2.11,23.801 -5.75,32.25 -6.72,15.153 -18.34,22.731 -34.84,22.743 -17.08,0 -29.07,-8.832 -35.98,-26.481 -3.08,-7.871 -4.71,-17.379 -4.9,-28.5"
         style="fill:#899096;fill-opacity:1;fill-rule:evenodd;stroke:none"
         id="path32" /><path
         d="m 1716.27,945.898 0.01,-84.058 c -6.72,1.719 -13.25,2.59 -19.58,2.59 -21.3,0 -40.02,-6.141 -56.13,-18.43 -10.18,-7.48 -18.91,-18.121 -26.2,-31.949 l 0.01,-152.571 H 1526 l -0.02,277.239 88.38,-0.008 v -24.762 c 0,-0.39 -0.09,-2.508 -0.28,-6.328 -0.2,-1.93 -0.29,-4.129 -0.29,-6.621 0,-3.078 0.18,-9.699 0.58,-19.871 7.86,15.551 16.68,28.023 26.48,37.422 19.37,18.801 39.81,28.211 61.32,28.219 3.25,0 7.96,-0.301 14.1,-0.872"
         style="fill:#899096;fill-opacity:1;fill-rule:evenodd;stroke:none"
         id="path34" /><path
         d="m 1957.93,871.332 -81.19,-6.621 c -1.72,16.699 -10.07,25.051 -25.04,25.051 -8.84,0 -15.84,-2.891 -21.02,-8.641 -3.45,-4.031 -5.18,-9.019 -5.18,-14.973 0,-11.507 5.66,-19.769 16.99,-24.746 3.07,-1.363 19.28,-5 48.65,-10.953 51.43,-10.179 77.15,-37.918 77.16,-83.199 0,-28.02 -10.46,-50.859 -31.38,-68.52 -19.96,-16.89 -49.42,-25.32 -88.38,-25.32 -63.32,0 -97.59,28.301 -102.78,84.93 l 82.34,5.18 c 2.31,-20.739 12.47,-31.098 30.51,-31.098 10.17,0 17.76,3.738 22.75,11.219 2.88,4.218 4.31,8.73 4.31,13.539 0,14.582 -11.13,23.879 -33.39,27.929 -21.88,4.02 -37.62,7.481 -47.21,10.36 -9.6,2.883 -18.05,6.711 -25.34,11.511 -23.42,14.969 -35.12,38.102 -35.13,69.391 0,27.82 10.74,50.75 32.25,68.801 18.42,15.539 44.33,23.32 77.72,23.32 20.92,0 39.34,-3.57 55.27,-10.672 16.13,-6.898 28.12,-16.601 35.99,-29.07 5.95,-9.41 9.98,-21.891 12.1,-37.418"
         style="fill:#899096;fill-opacity:1;fill-rule:evenodd;stroke:none"
         id="path36" /><path
         d="m 2103.59,938.68 0.02,-277.231 h -88.38 l -0.01,277.231 z m -0.01,115.72 0.01,-78.869 -88.38,0.008 v 78.871 l 88.37,-0.01"
         style="fill:#899096;fill-opacity:1;fill-rule:evenodd;stroke:none"
         id="path38" /><path
         d="m 2411.33,1054.38 0.03,-392.95 h -77.16 l -4.32,28.5 c -21.87,-24.18 -46.44,-36.27 -73.69,-36.258 -37.05,0 -65.16,16.976 -84.35,50.957 -14.4,25.711 -21.6,57.57 -21.6,95.57 -0.01,41.461 8.14,74.953 24.46,100.473 9.59,14.969 21.49,26.668 35.7,35.117 14.4,8.441 29.45,12.66 45.2,12.672 25.13,0 47.58,-11.91 67.36,-35.711 l -0.01,141.64 z m -88.37,-202.368 c -10.17,16.508 -22.84,24.758 -38,24.769 -16.51,0 -28.5,-10.281 -35.98,-30.801 -4.03,-11.718 -6.04,-26.98 -6.04,-45.781 0,-28.777 4.79,-50.668 14.39,-65.64 7.29,-11.508 16.79,-17.278 28.51,-17.278 14.96,0 27.34,8.551 37.13,25.629 v 10.649 15.261 9.782 l -0.01,73.41"
         style="fill:#899096;fill-opacity:1;fill-rule:evenodd;stroke:none"
         id="path40" /><path
         d="m 2555,852 -85.79,10.66 c 3.64,22.07 11.12,39.141 22.45,51.242 21.3,23.02 55.56,34.539 102.77,34.539 46.25,-0.011 79.26,-10.472 99.04,-31.39 11.13,-11.711 17.46,-25.719 19,-42.031 0.95,-9.989 1.43,-23.801 1.44,-41.461 l 0.01,-70.817 c 0,-52.012 1.34,-85.793 4.03,-101.32 h -85.21 l -3.46,22.738 c -25.53,-20.34 -53.07,-30.5 -82.62,-30.512 -26.48,0 -47.7,6.622 -63.62,19.872 -17.28,14.582 -25.92,33.679 -25.92,57.289 0,29.941 13.24,53.632 39.73,71.101 20.72,13.621 61.41,26.762 122.06,39.442 l 6.62,1.429 c 0,3.641 0,6.039 0,7.199 0.18,13.43 -2.21,22.45 -7.2,27.059 -5.96,5.191 -14.31,7.77 -25.05,7.77 -21.87,0 -34.64,-10.93 -38.28,-32.809 z m 70.53,-65.07 c -14.78,-2.11 -29.85,-6.039 -45.19,-11.789 -19.97,-7.489 -29.94,-19.11 -29.94,-34.84 0,-7.871 3.07,-13.91 9.21,-18.129 4.8,-3.27 10.45,-4.902 16.99,-4.902 15.34,-0.008 31.66,6.332 48.94,19 l -0.01,50.66"
         style="fill:#899096;fill-opacity:1;fill-rule:evenodd;stroke:none"
         id="path42" /><path
         d="m 3021.36,1054.34 0.02,-392.938 h -77.15 l -4.32,28.496 c -21.88,-24.179 -46.45,-36.269 -73.7,-36.269 -37.05,0 -65.17,16.98 -84.35,50.961 -14.4,25.711 -21.6,57.57 -21.6,95.582 -0.01,41.449 8.15,74.937 24.47,100.457 9.59,14.973 21.49,26.68 35.69,35.121 14.39,8.441 29.45,12.66 45.2,12.672 25.13,0 47.59,-11.91 67.36,-35.711 v 141.639 z m -88.37,-202.371 c -10.18,16.511 -22.84,24.761 -38,24.773 -16.51,0 -28.51,-10.281 -35.99,-30.812 -4.03,-11.711 -6.04,-26.969 -6.04,-45.758 0,-28.793 4.79,-50.68 14.4,-65.652 7.28,-11.508 16.79,-17.27 28.5,-17.27 14.97,0 27.35,8.531 37.13,25.621 v 10.649 15.261 9.778 73.41"
         style="fill:#899096;fill-opacity:1;fill-rule:evenodd;stroke:none"
         id="path44" /><path
         d="m 3242.47,749.191 82.04,-6.632 c -13.62,-59.309 -54.98,-88.957 -124.06,-88.95 -45.88,0 -80.14,14.11 -102.78,42.321 -20.16,24.949 -30.23,58.351 -30.24,100.179 0,44.723 9.87,80.133 29.65,106.231 12.28,16.129 28.2,28.019 47.78,35.699 17.46,6.91 35.89,10.359 55.28,10.359 37.22,0 66.77,-11.527 88.67,-34.546 17.27,-18.051 28.21,-40.793 32.82,-68.243 0.96,-6.519 2.21,-27.828 3.74,-63.898 L 3161,781.719 c 0.18,-15.739 1.52,-28.129 4.03,-37.137 2.49,-8.832 7.68,-15.832 15.55,-21.023 6.52,-4.219 13.8,-6.317 21.87,-6.317 21.31,-0.012 34.64,10.637 40.02,31.949 z m -81.47,80.598 81.46,-0.008 c -0.19,13.051 -2.11,23.801 -5.76,32.25 -6.72,15.16 -18.33,22.731 -34.83,22.739 -17.08,0 -29.08,-8.821 -35.99,-26.481 -3.07,-7.867 -4.7,-17.359 -4.88,-28.5"
         style="fill:#899096;fill-opacity:1;fill-rule:evenodd;stroke:none"
         id="path46" /><path
         d="m 3771.58,1054.3 0.02,-392.948 -77.15,0.007 -4.32,28.493 c -21.88,-24.18 -46.45,-36.27 -73.69,-36.27 -37.06,0 -65.17,17 -84.36,50.957 -14.39,25.711 -21.59,57.57 -21.59,95.582 0,41.449 8.14,74.938 24.46,100.461 9.58,14.977 21.5,26.68 35.69,35.129 14.4,8.441 29.46,12.66 45.2,12.66 25.14,0 47.6,-11.91 67.36,-35.699 v 141.638 z m -88.37,-202.378 c -10.17,16.508 -22.84,24.758 -38,24.769 -16.51,0 -28.5,-10.269 -35.99,-30.8 -4.02,-11.711 -6.04,-26.969 -6.04,-45.77 0,-28.789 4.81,-50.672 14.4,-65.641 7.28,-11.519 16.79,-17.269 28.5,-17.269 14.97,0 27.36,8.531 37.14,25.609 l -0.01,10.66 v 15.25 9.79 73.402"
         style="fill:#899096;fill-opacity:1;fill-rule:evenodd;stroke:none"
         id="path48" /><path
         d="m 3954.97,948.352 c 48.55,0 84.54,-18.723 107.96,-56.141 15.16,-24 22.73,-53.652 22.74,-88.961 0,-47.41 -11.99,-84.34 -35.97,-110.828 -23.61,-25.91 -56.81,-38.863 -99.6,-38.863 -48.76,0 -84.27,16.8 -106.53,50.382 -17.09,25.719 -25.62,57.778 -25.62,96.161 -0.01,24.558 3.83,46.918 11.5,67.078 7.68,20.34 18.52,36.832 32.53,49.511 23.61,21.098 54.6,31.661 92.99,31.661 z m -4.32,-63.622 c -26.69,0.012 -40.01,-27.16 -40.01,-81.468 0,-27.832 2.6,-48.082 7.78,-60.742 7.1,-16.899 18.04,-25.329 32.82,-25.329 18.43,0 30.61,12.09 36.56,36.27 3.45,13.621 5.18,32.519 5.17,56.711 0,49.699 -14.1,74.547 -42.32,74.558"
         style="fill:#899096;fill-opacity:1;fill-rule:evenodd;stroke:none"
         id="path50" /><path
         d="M 0,2306.43 H 5952.89 V 5282.68 H 0 Z"
         style="fill:#854953;fill-opacity:1;fill-rule:evenodd;stroke:none"
         id="path52" /><path
         d="m 2244.92,4122.18 -567.78,-330.54 c -103.08,-59.52 -193.72,97.01 -90.63,156.54 l 567.87,330.42 c 103.19,59.59 193.52,-96.96 90.54,-156.42 z m -1467.615,154.5 574.145,-325.36 c 103.24,-59.61 12.81,-216.26 -90.14,-156.82 l -574.08,325.49 c -103.132,59.55 -12.976,216.19 90.075,156.69 z m 599.995,-1352.22 -0.08,660.37 c 0.01,50 40.62,90.41 90.48,90.41 49.93,0 90.41,-40.48 90.41,-90.41 l -0.08,-660.37 c 0,-49.87 -40.33,-90.41 -90.33,-90.41 -49.93,0 -90.4,40.48 -90.4,90.41 z m -692.968,509.34 275.684,156.51 c 103.014,59.48 193.524,-97.13 90.324,-156.71 L 774.594,3277.21 c -103.114,-59.54 -193.321,97.08 -90.262,156.59 z m 1465.808,-161.75 -268.49,161.94 c -103.05,59.5 -12.42,216.03 90.72,156.48 l 268.41,-162.06 c 102.96,-59.45 12.58,-215.96 -90.64,-156.36 z m -591.68,1354.41 0.08,-317.01 c 0,-50.01 -40.62,-90.42 -90.49,-90.42 -49.93,0 -90.4,40.48 -90.4,90.42 l 0.07,317.01 c 0,49.86 40.34,90.4 90.33,90.4 49.93,0 90.41,-40.47 90.41,-90.4"
         style="fill:#ffffff;fill-opacity:1;fill-rule:nonzero;stroke:none"
         id="path54" /></g></g></svg>
